<?xml version="1.0" encoding="UTF-8"?><svg xmlns="http://www.w3.org/2000/svg" xmlns:xlink="http://www.w3.org/1999/xlink" contentScriptType="text/ecmascript" width="375pt" zoomAndPan="magnify" contentStyleType="text/css" viewBox="0 0 375 374.999991" height="374.999991pt" preserveAspectRatio="xMidYMid meet" version="1.2"><defs><g/></defs><g xml:id="surface1" id="surface1"><path style=" stroke:none;fill-rule:nonzero;fill:rgb(100%,100%,100%);fill-opacity:1;" d="M 167.507812 125.84375 C 166.4375 133.386719 161.21875 138.890625 155.847656 138.136719 C 150.476562 137.378906 146.988281 130.652344 148.054688 123.105469 C 149.125 115.5625 154.34375 110.058594 159.714844 110.8125 C 165.085938 111.570312 168.574219 118.296875 167.507812 125.84375 "/><path style=" stroke:none;fill-rule:nonzero;fill:rgb(100%,100%,100%);fill-opacity:1;" d="M 140.570312 107.441406 C 141.457031 114.003906 137.820312 119.910156 132.441406 120.632812 C 127.066406 121.355469 121.988281 116.621094 121.101562 110.054688 C 120.214844 103.492188 123.851562 97.582031 129.226562 96.863281 C 134.605469 96.140625 139.683594 100.875 140.570312 107.441406 "/><path style=" stroke:none;fill-rule:nonzero;fill:rgb(100%,100%,100%);fill-opacity:1;" d="M 158.277344 144.714844 C 153.636719 139.429688 146.671875 144.890625 140.703125 136.320312 C 134.730469 127.75 125.292969 131.214844 125.292969 131.214844 C 125.292969 131.214844 116.085938 135.25 117.753906 145.546875 C 119.417969 155.847656 110.605469 156.734375 110.941406 163.746094 C 111.277344 170.757812 116.128906 178.617188 124.59375 176.871094 C 133.0625 175.128906 131.257812 167.378906 138.71875 164.378906 C 146.175781 161.378906 150.273438 168.207031 157.585938 163.609375 C 164.894531 159.007812 162.917969 149.996094 158.277344 144.714844 "/><path style=" stroke:none;fill-rule:nonzero;fill:rgb(100%,100%,100%);fill-opacity:1;" d="M 92.164062 154.417969 C 97.847656 159.515625 105.394531 160.386719 109.023438 156.367188 C 112.648438 152.347656 110.980469 144.957031 105.296875 139.863281 C 99.613281 134.769531 92.0625 133.894531 88.4375 137.917969 C 84.808594 141.9375 86.476562 149.324219 92.164062 154.417969 "/><path style=" stroke:none;fill-rule:nonzero;fill:rgb(100%,100%,100%);fill-opacity:1;" d="M 97.738281 124.664062 C 101.671875 130.003906 108.402344 131.738281 112.777344 128.542969 C 117.148438 125.34375 117.507812 118.421875 113.578125 113.082031 C 109.644531 107.742188 102.914062 106.003906 98.539062 109.203125 C 94.164062 112.398438 93.808594 119.320312 97.738281 124.664062 "/><path style=" stroke:none;fill-rule:nonzero;fill:rgb(100%,100%,100%);fill-opacity:1;" d="M 208.070312 98.128906 C 209.136719 105.675781 214.355469 111.179688 219.726562 110.425781 C 225.097656 109.667969 228.585938 102.941406 227.519531 95.394531 C 226.453125 87.851562 221.230469 82.347656 215.859375 83.101562 C 210.488281 83.855469 207 90.585938 208.070312 98.128906 "/><path style=" stroke:none;fill-rule:nonzero;fill:rgb(100%,100%,100%);fill-opacity:1;" d="M 235.007812 79.730469 C 234.117188 86.292969 237.757812 92.199219 243.132812 92.921875 C 248.507812 93.644531 253.585938 88.910156 254.472656 82.34375 C 255.363281 75.777344 251.722656 69.871094 246.347656 69.148438 C 240.972656 68.429688 235.894531 73.164062 235.007812 79.730469 "/><path style=" stroke:none;fill-rule:nonzero;fill:rgb(100%,100%,100%);fill-opacity:1;" d="M 217.300781 117 C 221.941406 111.71875 228.902344 117.179688 234.875 108.609375 C 240.84375 100.039062 250.285156 103.503906 250.285156 103.503906 C 250.285156 103.503906 259.492188 107.535156 257.824219 117.835938 C 256.15625 128.136719 264.972656 129.019531 264.636719 136.03125 C 264.296875 143.046875 259.449219 150.902344 250.980469 149.160156 C 242.511719 147.417969 244.316406 139.667969 236.859375 136.667969 C 229.398438 133.667969 225.300781 140.496094 217.988281 135.894531 C 210.679688 131.292969 212.660156 122.28125 217.300781 117 "/><path style=" stroke:none;fill-rule:nonzero;fill:rgb(100%,100%,100%);fill-opacity:1;" d="M 283.414062 126.707031 C 277.726562 131.800781 270.179688 132.671875 266.550781 128.65625 C 262.925781 124.632812 264.59375 117.246094 270.277344 112.152344 C 275.964844 107.054688 283.511719 106.183594 287.136719 110.203125 C 290.765625 114.226562 289.097656 121.613281 283.414062 126.707031 "/><path style=" stroke:none;fill-rule:nonzero;fill:rgb(100%,100%,100%);fill-opacity:1;" d="M 277.835938 96.949219 C 273.90625 102.292969 267.171875 104.027344 262.796875 100.832031 C 258.425781 97.632812 258.066406 90.710938 262 85.371094 C 265.929688 80.03125 272.664062 78.292969 277.035156 81.488281 C 281.410156 84.6875 281.769531 91.609375 277.835938 96.949219 "/><g style="fill:rgb(100%,100%,100%);fill-opacity:1;"><g transform="translate(9.066695, 243.622343)"><path style="stroke:none;" d="M 28.292969 -81.527344 C 27.8125 -81.503906 26.988281 -81.554688 26.644531 -81.625 C 25.953125 -80.574219 25.078125 -79.800781 24.84375 -78.660156 C 23.304688 -72.898438 21.421875 -67.207031 19.449219 -61.65625 C 18.511719 -57.679688 16.457031 -54.050781 15.292969 -50.117188 C 14.398438 -45.773438 12.707031 -41.59375 11.703125 -37.273438 C 10.632812 -33.800781 9.105469 -30.417969 8.492188 -26.851562 C 6.648438 -20.199219 5.148438 -13.480469 3.878906 -6.710938 C 3.117188 -5.316406 4.667969 -4.164062 4.867188 -2.8125 C 5.226562 -1.667969 6.253906 -0.859375 6.75 0.195312 C 8.078125 0.703125 8.871094 2.058594 10.355469 2.363281 C 11.90625 3.515625 13.679688 1.855469 15.324219 2.550781 C 16.378906 2.050781 16.5 0.882812 17.441406 0.363281 C 18.671875 -3.316406 18.667969 -7.367188 20.128906 -11 C 19.976562 -12.578125 20.992188 -14.039062 20.839844 -15.621094 C 21.875 -16.597656 21.46875 -18.109375 22.070312 -19.296875 C 22.894531 -23.300781 24.398438 -27.160156 25.703125 -31.183594 C 25.636719 -32.03125 26.257812 -32.734375 26.765625 -33.464844 C 29.300781 -32.46875 32.117188 -32.25 34.816406 -32.050781 C 36.894531 -31.148438 39.34375 -31.480469 41.5625 -30.667969 C 40.351562 -26.507812 40.421875 -22.203125 39.324219 -18.019531 C 38.699219 -12.074219 36.699219 -6.40625 36.328125 -0.527344 C 36.597656 0.484375 36.867188 1.492188 37.664062 2.25 C 38.597656 2.917969 38.59375 4.109375 38.75 5.09375 C 40.167969 5.148438 40.59375 6.546875 41.851562 6.804688 C 42.945312 7.863281 44.640625 7.734375 46.058594 7.785156 C 47.089844 7.996094 47.257812 6.007812 48.582031 7.113281 C 50.167969 5.769531 50.269531 3.527344 50.417969 1.652344 C 51.054688 -2.625 52.265625 -6.785156 52.769531 -10.972656 C 52.910156 -11.65625 53.371094 -12.160156 53.511719 -12.84375 C 53.410156 -15.84375 54.617188 -18.8125 54.65625 -21.902344 C 55.628906 -24.324219 55.734375 -27.164062 56.617188 -29.722656 C 58.015625 -34.199219 58.839844 -38.796875 60.234375 -43.277344 C 60.71875 -43.890625 61.226562 -44.621094 61.160156 -45.46875 C 61.394531 -46.613281 61.652344 -47.871094 62.003906 -48.988281 C 62.761719 -49.785156 62.746094 -50.863281 62.816406 -51.800781 C 63.351562 -53.238281 64.34375 -54.585938 64.304688 -56.140625 C 64.429688 -57.902344 65.328125 -59.386719 65.65625 -60.988281 C 65.738281 -63.710938 66.761719 -66.363281 65.882812 -69.042969 C 64.648438 -70.011719 64.589844 -72.046875 63.015625 -72.492188 C 62.238281 -72.769531 60.386719 -73.03125 60.78125 -74.378906 C 58.835938 -74.777344 56.894531 -75.179688 54.949219 -75.578125 C 55.042969 -75.4375 55.246094 -75.277344 55.335938 -75.140625 C 54.394531 -74.023438 53.21875 -72.953125 53.03125 -71.445312 C 52.015625 -65.933594 49.65625 -60.816406 48.441406 -55.46875 C 47.929688 -54.140625 47.761719 -52.746094 46.816406 -51.628906 C 46.832031 -49.960938 45.792969 -48.386719 45.441406 -46.671875 C 44.929688 -44.75 44.644531 -42.78125 44.015625 -40.886719 C 44.125 -39.671875 42.746094 -38.765625 41.765625 -39.203125 C 37.234375 -39.777344 32.839844 -39.84375 28.472656 -40.621094 C 28.617188 -41.902344 29.421875 -42.929688 29.660156 -44.070312 C 29.414062 -45.195312 30.449219 -46.171875 30.566406 -47.339844 C 31.976562 -49.554688 32.171875 -52.253906 33.375 -54.628906 C 33.515625 -55.3125 33.449219 -56.160156 33.933594 -56.777344 C 34.539062 -58.558594 34.660156 -60.320312 35.585938 -61.917969 C 35.730469 -63.199219 35.78125 -64.617188 36.589844 -65.644531 C 37.039062 -68.410156 38.285156 -71.015625 38.507812 -73.828125 C 37.921875 -75.617188 37.128906 -77.566406 35.601562 -78.832031 C 35.167969 -79.042969 35.328125 -79.246094 35.515625 -79.566406 C 34.738281 -79.84375 33.824219 -80.03125 32.910156 -80.21875 C 31.332031 -80.664062 29.800781 -81.335938 28.292969 -81.527344 Z M 28.292969 -81.527344 "/></g></g><g style="fill:rgb(100%,100%,100%);fill-opacity:1;"><g transform="translate(64.374511, 254.84493)"><path style="stroke:none;" d="M 55.136719 -49.0625 C 54.746094 -49.699219 54.332031 -50.109375 53.925781 -50.632812 C 53.148438 -50.96875 52.515625 -51.523438 52.15625 -52.394531 C 52.070312 -52.640625 51.984375 -52.886719 51.898438 -53.132812 C 50.890625 -53.5 50.183594 -54.417969 49.304688 -54.882812 C 48.671875 -55.4375 48 -54.820312 47.40625 -54.777344 C 46.285156 -56.101562 44.253906 -54.957031 42.792969 -55.5 C 41.878906 -54.796875 42.304688 -53.5625 41.9375 -52.550781 C 40.652344 -48.128906 39.71875 -43.660156 38.664062 -39.207031 C 38.730469 -37.902344 37.421875 -36.898438 37.820312 -35.433594 C 37.929688 -34.476562 36.363281 -34.210938 36.808594 -33.09375 C 36.121094 -29.652344 35.089844 -26.253906 33.941406 -22.875 C 33.386719 -19.535156 32.355469 -16.136719 32.148438 -12.75 C 32.804688 -10.546875 30.839844 -11.746094 30.226562 -10.648438 C 30.148438 -9.128906 28.738281 -8.253906 27.890625 -7.1875 C 26.542969 -6.773438 26.316406 -5.039062 25.085938 -4.609375 C 23.789062 -3.71875 22.066406 -3.121094 20.476562 -3.566406 C 19.738281 -4.25 20.007812 -5.390625 19.011719 -5.875 C 18.179688 -7.628906 18.699219 -9.800781 18.246094 -11.742188 C 18.449219 -14.1875 18.316406 -16.792969 19.328125 -19.132812 C 19.285156 -21.492188 20.597656 -23.441406 20.652344 -25.667969 C 21.835938 -27.515625 20.835938 -29.765625 21.886719 -31.511719 C 22.53125 -32.839844 22.410156 -34.621094 23.503906 -35.773438 C 23.160156 -36.757812 23.730469 -37.507812 24.066406 -38.289062 C 24.117188 -39.578125 24.644531 -40.917969 24.351562 -42.253906 C 25.332031 -44.363281 25.417969 -46.820312 26.515625 -48.914062 C 26.804688 -49.347656 26.519531 -49.855469 26.464844 -50.332031 C 25.921875 -51.582031 26.132812 -53.203125 25.082031 -54.164062 C 24.445312 -54.71875 23.804688 -56.097656 24.804688 -56.554688 C 23.777344 -56.804688 22.621094 -56.957031 21.609375 -57.324219 C 21.410156 -57.585938 21.46875 -58.046875 21.007812 -58.109375 C 19.734375 -58.273438 18.679688 -59.234375 17.363281 -59.054688 C 16.066406 -59.929688 14.644531 -59.882812 13.289062 -60.292969 C 12.964844 -59.628906 12.628906 -58.851562 12.421875 -58.171875 C 12.628906 -56.144531 11.214844 -54.328125 11.550781 -52.398438 C 11.242188 -51.851562 10.820312 -51.316406 10.976562 -50.707031 C 10.347656 -46.789062 9.472656 -42.785156 8.496094 -38.910156 C 7.933594 -34.628906 6.234375 -30.613281 5.90625 -26.300781 C 5.597656 -23.042969 4.914062 -19.601562 5.679688 -16.441406 C 6.082031 -13.210938 6.089844 -9.679688 8.101562 -7.0625 C 9.234375 -4.914062 10.21875 -2.550781 12.152344 -1.121094 C 13.003906 -0.421875 14.261719 -0.140625 14.570312 1.078125 C 16.769531 1.367188 18.757812 3.273438 21.0625 2.75 C 21.773438 2.726562 22.367188 2.683594 23.074219 2.660156 C 23.238281 2.328125 23.496094 2.125 23.757812 1.925781 C 24.429688 1.308594 25.136719 1.28125 26.078125 1.285156 C 26.3125 1.316406 26.558594 1.230469 26.789062 1.261719 C 28.3125 0.402344 29.449219 -1.097656 30.457031 -2.496094 C 31.492188 -1.417969 30.527344 0.574219 31.5625 1.648438 C 31.75 2.027344 32.121094 2.78125 31.84375 3.097656 C 31.945312 3.230469 31.929688 3.34375 32.015625 3.59375 C 32.449219 3.882812 32.765625 4.160156 32.820312 4.640625 C 32.832031 5.464844 33.496094 5.785156 33.898438 6.308594 C 35.433594 6.273438 35.902344 8.101562 37.289062 8.28125 C 38.347656 8.304688 39.402344 8.324219 40.574219 8.359375 C 41.769531 7.335938 43.277344 6.59375 43.71875 5.003906 C 43.261719 1.292969 44.457031 -2.433594 45.15625 -5.992188 C 45.222656 -7.394531 46.933594 -7.878906 46.1875 -9.386719 C 46.0625 -10.226562 46.761719 -11.078125 46.984375 -11.875 C 46.585938 -13.335938 47.59375 -14.734375 47.671875 -16.253906 C 48.273438 -17.238281 48.65625 -18.363281 48.691406 -19.535156 C 48.867188 -19.984375 48.839844 -20.695312 49.433594 -20.734375 C 49.964844 -22.078125 49.351562 -23.6875 50.210938 -24.871094 C 51.261719 -26.617188 50.941406 -28.660156 51.644531 -30.449219 C 52.546875 -33.746094 53.332031 -37.054688 53.753906 -40.296875 C 54.324219 -41.046875 53.742188 -42.886719 54.941406 -43.085938 C 55.679688 -45.105469 55.109375 -47.0625 55.136719 -49.0625 Z M 55.136719 -49.0625 "/></g></g><g style="fill:rgb(100%,100%,100%);fill-opacity:1;"><g transform="translate(117.118809, 261.452016)"><path style="stroke:none;" d="M 10.761719 -3.34375 C 11.929688 -1.625 14.359375 -1.222656 15.515625 0.613281 C 17.253906 0.851562 18.96875 1.441406 20.808594 1.917969 C 21.28125 1.835938 21.671875 1.277344 22.253906 1.320312 C 23.828125 2.246094 23.574219 0.824219 24.082031 0.277344 C 24.980469 0.808594 25.921875 0.753906 26.976562 0.710938 C 27.226562 0.496094 27.464844 0.394531 27.707031 0.292969 C 27.707031 0.292969 28.445312 -0.238281 28.320312 -0.128906 C 29.300781 -0.765625 30.164062 -1.40625 31.039062 -2.164062 C 31.398438 -4.011719 30.597656 -5.9375 29.414062 -7.425781 C 27.59375 -8.136719 25.539062 -7.226562 23.945312 -6.167969 C 23.167969 -5.050781 21.84375 -6.199219 20.8125 -6.503906 C 19.953125 -7.617188 18.339844 -7.964844 17.496094 -9.308594 C 16.5625 -11.011719 16.117188 -13.03125 16.257812 -15.011719 C 15.84375 -17.496094 16.371094 -20.035156 16.433594 -22.601562 C 17.28125 -24.648438 17.441406 -26.980469 18.402344 -29.019531 C 19.109375 -30.722656 19.027344 -32.953125 20.523438 -34.25 C 21.039062 -34.917969 21.242188 -36.191406 22.292969 -36.117188 C 26.25 -35.839844 29.664062 -37.824219 33.171875 -39.453125 C 34.292969 -40.429688 35.761719 -41.378906 35.535156 -43.148438 C 35.792969 -43.480469 36.515625 -43.78125 36.324219 -44.382812 C 35.804688 -45.351562 37.359375 -45.828125 37.199219 -46.894531 C 37.742188 -49.664062 35.320312 -51.820312 35.042969 -54.53125 C 34.390625 -55.277344 33.859375 -56.019531 32.953125 -56.433594 C 32.285156 -56.945312 31.371094 -57.246094 31.550781 -58.167969 C 30.277344 -58.375 29.015625 -58.695312 27.890625 -59.359375 C 27.339844 -59.867188 26.285156 -59.824219 25.6875 -59.628906 C 23.691406 -59.535156 21.585938 -59.566406 19.558594 -59.003906 C 19.46875 -57.722656 17.941406 -57.597656 17.292969 -56.707031 C 14.675781 -54.429688 13.285156 -51.253906 11.113281 -48.597656 C 11.007812 -47.082031 9.878906 -45.992188 9.320312 -44.742188 C 9.03125 -43.945312 8.742188 -43.144531 8.34375 -42.472656 C 8.394531 -41.53125 7.882812 -40.867188 7.367188 -40.199219 C 6.726562 -39.425781 7.3125 -37.746094 6.234375 -37.355469 C 5.996094 -35.617188 5.863281 -33.753906 5.050781 -32.171875 C 3.796875 -27.578125 4.394531 -22.742188 4.300781 -18.066406 C 5.019531 -16.613281 4.558594 -15.007812 5.042969 -13.570312 C 5.808594 -11.175781 6.8125 -8.765625 7.824219 -6.472656 C 8.378906 -6.085938 8.9375 -5.695312 9.246094 -5.085938 C 9.929688 -4.804688 10.585938 -4.175781 10.761719 -3.34375 Z M 27.191406 -45.953125 C 28.125 -47.644531 29.503906 -48.953125 30.332031 -50.765625 C 31.132812 -50.476562 30.710938 -49.453125 30.535156 -48.644531 C 30.3125 -47.140625 29.292969 -45.925781 28.503906 -44.691406 C 27.410156 -44.066406 26.488281 -42.609375 24.984375 -42.832031 C 25.421875 -44.089844 26.191406 -45.085938 27.191406 -45.953125 Z M 27.191406 -45.953125 "/></g></g><g style="fill:rgb(100%,100%,100%);fill-opacity:1;"><g transform="translate(154.488018, 263.905976)"><path style="stroke:none;" d="M 11.292969 -85.144531 C 10.933594 -84.804688 10.582031 -84.699219 10.109375 -84.59375 C 11.019531 -83.753906 9.933594 -82.5 10.019531 -81.328125 C 10.449219 -80.03125 9.476562 -78.777344 9.324219 -77.496094 C 9.160156 -75.867188 8.882812 -74.238281 8.488281 -72.734375 C 8.433594 -70.75 8.144531 -68.773438 7.738281 -66.914062 C 7.179688 -63.664062 6.855469 -60.402344 6.292969 -57.148438 C 6.15625 -56.335938 5.898438 -55.527344 6.109375 -54.703125 C 5.078125 -51.347656 5.214844 -47.839844 4.535156 -44.472656 C 3.863281 -33.167969 2.136719 -21.773438 3.449219 -10.410156 C 3.546875 -9.707031 3.167969 -8.785156 3.855469 -8.296875 C 4.539062 -7.695312 4.273438 -6.535156 4.597656 -5.707031 C 5.140625 -4.175781 6.148438 -2.746094 6.691406 -1.210938 C 7.15625 -1.199219 7.96875 -1.058594 8.4375 -1.042969 C 9.679688 0.390625 11.914062 -0.128906 13.53125 0.382812 C 14.367188 -0.175781 15.210938 -1.085938 16.257812 -0.9375 C 16.753906 -1.976562 16.320312 -3.15625 16.703125 -4.3125 C 16.441406 -7.472656 16.417969 -10.742188 16.277344 -14.015625 C 16.847656 -17.617188 17.066406 -21.230469 16.933594 -24.738281 C 17.945312 -27.511719 16.867188 -30.695312 17.878906 -33.351562 C 18.476562 -33.917969 17.207031 -34.421875 17.695312 -35.109375 C 18.792969 -36.828125 17.808594 -39.191406 18.5625 -41.039062 C 19.195312 -42.773438 18.78125 -44.652344 19.53125 -46.382812 C 19.972656 -49.519531 20.527344 -52.65625 20.621094 -55.925781 C 21.023438 -57.78125 21.3125 -59.757812 22.183594 -61.601562 C 21.90625 -64.179688 22.792969 -66.605469 22.632812 -69.179688 C 23.867188 -71.476562 23.003906 -74.070312 23.542969 -76.507812 C 23.714844 -78.488281 22.242188 -80.046875 21.113281 -81.480469 C 19.042969 -82.589844 17.472656 -84.851562 14.902344 -84.691406 C 13.871094 -85.421875 12.464844 -85.230469 11.292969 -85.144531 Z M 11.292969 -85.144531 "/></g></g><g style="fill:rgb(100%,100%,100%);fill-opacity:1;"><g transform="translate(179.201793, 264.593836)"><path style="stroke:none;" d="M 8.507812 -85.46875 C 8.160156 -85.117188 7.808594 -85 7.34375 -84.878906 C 8.28125 -84.066406 7.234375 -82.78125 7.355469 -81.613281 C 7.828125 -80.332031 6.902344 -79.042969 6.789062 -77.757812 C 6.679688 -76.125 6.453125 -74.488281 6.109375 -72.972656 C 6.117188 -70.988281 5.894531 -69 5.550781 -67.132812 C 5.097656 -63.863281 4.878906 -60.59375 4.425781 -57.324219 C 4.3125 -56.507812 4.082031 -55.6875 4.320312 -54.871094 C 3.398438 -51.484375 3.648438 -47.984375 3.078125 -44.597656 C 2.777344 -33.273438 1.425781 -21.832031 3.105469 -10.515625 C 3.226562 -9.816406 2.878906 -8.882812 3.582031 -8.417969 C 4.285156 -7.835938 4.054688 -6.667969 4.410156 -5.855469 C 5 -4.339844 6.054688 -2.945312 6.648438 -1.429688 C 7.113281 -1.429688 7.929688 -1.316406 8.398438 -1.320312 C 9.6875 0.0742188 11.902344 -0.515625 13.539062 -0.0585938 C 14.351562 -0.644531 15.164062 -1.582031 16.214844 -1.46875 C 16.679688 -2.523438 16.207031 -3.6875 16.550781 -4.855469 C 16.1875 -8.003906 16.058594 -11.273438 15.8125 -14.539062 C 16.261719 -18.160156 16.363281 -21.777344 16.117188 -25.277344 C 17.039062 -28.082031 15.855469 -31.230469 16.78125 -33.917969 C 17.359375 -34.503906 16.074219 -34.964844 16.539062 -35.667969 C 17.582031 -37.421875 16.519531 -39.753906 17.214844 -41.621094 C 17.789062 -43.375 17.316406 -45.242188 18.007812 -46.996094 C 18.34375 -50.148438 18.796875 -53.300781 18.785156 -56.566406 C 19.125 -58.4375 19.351562 -60.421875 20.160156 -62.292969 C 19.800781 -64.859375 20.605469 -67.3125 20.363281 -69.878906 C 21.519531 -72.21875 20.574219 -74.78125 21.03125 -77.234375 C 21.140625 -79.21875 19.613281 -80.730469 18.441406 -82.125 C 16.335938 -83.167969 14.695312 -85.378906 12.128906 -85.132812 C 11.074219 -85.832031 9.675781 -85.589844 8.507812 -85.46875 Z M 8.507812 -85.46875 "/></g></g><g style="fill:rgb(100%,100%,100%);fill-opacity:1;"><g transform="translate(203.949911, 264.48386)"><path style="stroke:none;" d="M 2.75 -84.78125 C 2.289062 -84.644531 1.707031 -84.625 1.257812 -84.140625 C 1.59375 -81.464844 3.425781 -79.316406 5.136719 -77.277344 C 6.710938 -75.820312 8.5 -74.835938 10.519531 -73.976562 C 11.796875 -74.144531 12.996094 -73.253906 14.394531 -73.421875 C 15.433594 -73.695312 16.847656 -73.398438 17.75 -74.25 C 18.304688 -74.972656 18.851562 -75.929688 19.53125 -76.539062 C 20.039062 -78.542969 19.484375 -80.859375 17.914062 -82.199219 C 16.464844 -83.546875 14.566406 -84.292969 12.785156 -85.042969 C 11.402344 -84.523438 10.523438 -86.242188 9.152344 -85.371094 C 7.074219 -84.710938 4.972656 -84.746094 2.75 -84.78125 Z M 2.296875 -62.804688 C 1.71875 -62.667969 0.910156 -62.402344 1.175781 -61.59375 C 1.535156 -58.222656 0.964844 -54.8125 0.859375 -51.421875 C 0.992188 -47.921875 1.121094 -44.539062 0.902344 -41.027344 C 1.304688 -39.640625 0.894531 -38.109375 1.070312 -36.597656 C 1.566406 -29.609375 1.136719 -22.46875 2.449219 -15.507812 C 2.417969 -13.289062 3.433594 -11.109375 3.519531 -8.890625 C 5.113281 -6.851562 5.570312 -4.066406 7.730469 -2.511719 C 8.902344 -2.4375 9.753906 -1.535156 10.601562 -0.75 C 12.117188 -0.808594 13.648438 -0.398438 15.039062 -0.683594 C 16.574219 -0.277344 16.511719 -1.910156 17.429688 -2.410156 C 18.109375 -2.902344 18.429688 -3.734375 18.632812 -4.558594 C 18.175781 -7.34375 17.832031 -10.25 17.265625 -12.917969 C 17.5625 -14.328125 16.578125 -15.578125 17.230469 -16.886719 C 16.808594 -21.890625 16.617188 -26.90625 16.546875 -31.925781 C 16.839844 -33.457031 16.082031 -34.945312 16.496094 -36.363281 C 15.792969 -39.488281 17.078125 -42.574219 16.726562 -45.714844 C 16.539062 -47.578125 17.402344 -49.476562 16.628906 -51.316406 C 16.246094 -52.238281 17.035156 -52.96875 16.65625 -53.769531 C 16.835938 -55.179688 17.015625 -56.585938 16.269531 -57.726562 C 16.457031 -59.019531 14.925781 -59.3125 14.765625 -60.472656 C 13.976562 -59.742188 13.585938 -60.78125 13.214844 -61.347656 C 9.871094 -63.324219 5.890625 -63.523438 2.296875 -62.804688 Z M 2.296875 -62.804688 "/></g></g><g style="fill:rgb(100%,100%,100%);fill-opacity:1;"><g transform="translate(230.395808, 263.69772)"><path style="stroke:none;" d="M 37.859375 -60.789062 C 37.753906 -63.355469 35.832031 -65.296875 34.265625 -67.15625 C 33.378906 -67.898438 32.929688 -69.03125 31.84375 -69.40625 C 29.828125 -69.699219 27.734375 -69.519531 25.613281 -69.6875 C 24.902344 -69.742188 24.261719 -70.390625 24.550781 -71.117188 C 24.292969 -72.738281 24.96875 -74.433594 24.351562 -76.136719 C 24.414062 -78.136719 24.699219 -80.269531 23.828125 -82.183594 C 23.292969 -82.957031 22.640625 -83.722656 22.105469 -84.496094 C 21.570312 -85.269531 19.691406 -85.34375 20.066406 -86.429688 C 19.472656 -86.496094 18.882812 -86.5625 18.292969 -86.625 C 17.710938 -86.578125 17.003906 -86.632812 16.324219 -86.339844 C 16.207031 -86.328125 15.957031 -86.542969 15.714844 -86.636719 C 15.480469 -86.617188 15.25 -86.597656 14.898438 -86.566406 C 14.898438 -86.566406 14.785156 -86.558594 14.785156 -86.558594 C 14.550781 -86.539062 14.328125 -86.402344 14.210938 -86.390625 C 13.175781 -86.183594 12.160156 -85.746094 11.25 -85.433594 C 11.132812 -85.421875 10.6875 -85.148438 10.6875 -85.148438 C 10.582031 -85.023438 10.464844 -85.015625 10.242188 -84.878906 C 10.253906 -84.761719 10.15625 -84.519531 10.050781 -84.390625 C 10.121094 -83.578125 9.746094 -82.492188 10.164062 -81.707031 C 9.808594 -77.695312 10.042969 -73.613281 10.164062 -69.523438 C 9.988281 -68.808594 9.214844 -68.273438 8.402344 -68.203125 C 6.765625 -68.175781 5.292969 -67.582031 3.65625 -67.558594 C 2.132812 -67.542969 1.039062 -66.628906 -0.335938 -66.273438 C -2.722656 -64.078125 -2.671875 -60.800781 -2.527344 -57.769531 C -2.882812 -56.449219 -1.542969 -55.863281 -1.441406 -54.699219 C -0.664062 -53.828125 0.132812 -52.726562 1.316406 -52.59375 C 3.964844 -51.769531 6.699219 -53.996094 9.476562 -53.066406 C 9.316406 -50.824219 9.285156 -48.480469 9.128906 -46.242188 C 9.003906 -42.246094 9.238281 -38.167969 9 -34.164062 C 9.054688 -32.175781 9.464844 -30.105469 9.289062 -28.097656 C 9.027344 -24.324219 10.617188 -20.832031 11.054688 -17.121094 C 12.097656 -15.921875 11.996094 -14.390625 12.804688 -13.171875 C 13.609375 -11.953125 14.082031 -10.585938 14.664062 -9.230469 C 15.425781 -8.59375 16.074219 -7.832031 16.71875 -7.183594 C 17.6875 -6.800781 18.765625 -6.539062 19.425781 -5.660156 C 19.738281 -4.75 21.082031 -5.453125 21.503906 -4.667969 C 22.511719 -3.820312 23.628906 -3.09375 24.917969 -3.089844 C 26.070312 -3.304688 27.101562 -2.222656 28.253906 -2.441406 C 30.105469 -2.71875 31.9375 -3.226562 33.640625 -3.84375 C 34.492188 -4.851562 35.84375 -5.4375 36.210938 -6.640625 C 35.898438 -7.550781 35.363281 -8.324219 35.398438 -9.265625 C 34.609375 -10.25 33.289062 -10.605469 32.289062 -11.339844 C 31.085938 -11.703125 29.394531 -10.972656 28.585938 -12.191406 C 27.992188 -12.257812 27.296875 -12.195312 26.597656 -12.136719 C 26.160156 -13.152344 25.488281 -14.148438 25.375 -15.429688 C 24.820312 -16.433594 24.253906 -17.558594 24.261719 -18.847656 C 24.289062 -19.902344 23.382812 -20.878906 23.746094 -22.082031 C 23.851562 -26.308594 22.910156 -30.445312 23.359375 -34.699219 C 23.710938 -37.425781 23.585938 -40.226562 23.472656 -42.910156 C 24.222656 -45.082031 23.777344 -47.503906 24.042969 -49.871094 C 24.601562 -51.558594 23.480469 -53.6875 24.511719 -55.300781 C 27.078125 -55.40625 29.6875 -55.042969 32.246094 -55.265625 C 33.640625 -55.386719 34.683594 -54.1875 36.144531 -54.898438 C 37.164062 -56.628906 38.515625 -58.617188 37.859375 -60.789062 Z M 37.859375 -60.789062 "/></g></g><g style="fill:rgb(100%,100%,100%);fill-opacity:1;"><g transform="translate(277.370164, 259.587234)"><path style="stroke:none;" d="M 34.746094 -50.15625 C 33.867188 -53.683594 31.5 -56.871094 28.582031 -59.03125 C 27.898438 -60.460938 26.128906 -60.433594 25.050781 -61.332031 C 24.355469 -62.054688 23.414062 -62.03125 22.457031 -62.125 C 21.066406 -62.742188 19.65625 -63.476562 18.140625 -63.367188 C 17.335938 -64.78125 15.644531 -63.46875 14.441406 -63.640625 C 12.484375 -64.882812 13.65625 -62.578125 12.679688 -62.789062 C 12.460938 -63.464844 11.785156 -63.246094 11.191406 -63.273438 C 10.863281 -63.105469 10.417969 -62.921875 10.355469 -62.558594 C 8.363281 -61.671875 6.1875 -61.226562 4.378906 -59.894531 C 3.757812 -59.328125 2.984375 -58.976562 2.210938 -58.625 C 1.488281 -57.929688 1.03125 -57.035156 0.824219 -56.058594 C 0.382812 -55.050781 -0.898438 -54.148438 -0.246094 -52.949219 C 0.980469 -51.835938 2.308594 -50.851562 3.519531 -49.855469 C 5.425781 -48.957031 7.460938 -47.964844 9.523438 -48.390625 C 10.988281 -48.847656 12.472656 -49.1875 13.355469 -50.378906 C 13.828125 -51.160156 14.335938 -51.707031 15.128906 -51.941406 C 16.449219 -51.785156 16.667969 -53.472656 17.824219 -53.644531 C 19.371094 -54.347656 20.519531 -52.984375 21.152344 -51.898438 C 21.542969 -50.070312 22.148438 -48.390625 22.539062 -46.5625 C 22.183594 -45.800781 23.300781 -43.84375 22.179688 -43.4375 C 19.1875 -44.527344 16.023438 -43.582031 13.023438 -43.132812 C 10.863281 -42.574219 8.261719 -41.828125 7.035156 -39.757812 C 6.632812 -38.519531 5.429688 -37.867188 4.496094 -37.019531 C 3.363281 -35.90625 3.027344 -34.203125 1.878906 -33.207031 C 1.488281 -32.675781 1.476562 -31.964844 1.445312 -31.371094 C 0.5625 -30.175781 0.671875 -28.660156 -0.230469 -27.578125 C -0.378906 -25.433594 -0.664062 -23.382812 -0.816406 -21.238281 C 0.234375 -19.742188 -0.199219 -17.90625 0.621094 -16.378906 C 2.210938 -12.839844 4.03125 -9.335938 7.316406 -7.113281 C 7.746094 -6.585938 8.917969 -6.644531 8.925781 -5.820312 C 9.058594 -5.71875 9.304688 -5.640625 9.554688 -5.558594 C 9.554688 -5.558594 9.6875 -5.460938 9.6875 -5.460938 C 9.820312 -5.363281 9.933594 -5.378906 10.066406 -5.28125 C 11.226562 -4.628906 12.644531 -4.605469 13.824219 -3.835938 C 18.105469 -2.824219 22.542969 -3.132812 26.878906 -4.136719 C 27.847656 -4.753906 28.78125 -5.601562 29.601562 -6.433594 C 31.386719 -6.34375 33.199219 -6.851562 34.78125 -7.324219 C 35.667969 -7.691406 36.371094 -8.507812 36.730469 -9.269531 C 36.945312 -9.417969 37.289062 -9.46875 37.503906 -9.621094 C 36.546875 -9.710938 36.453125 -11.113281 37.210938 -11.582031 C 38.3125 -12.101562 36.703125 -13.394531 37.425781 -14.09375 C 38.175781 -15.382812 36.996094 -16.976562 37.628906 -18.253906 C 38.082031 -19.972656 37.128906 -21.601562 37.480469 -23.1875 C 38.296875 -24.84375 37.675781 -26.636719 37.777344 -28.304688 C 38.425781 -30.292969 37.652344 -32.300781 37.820312 -34.332031 C 37.71875 -39.746094 37.140625 -45.203125 34.746094 -50.15625 Z M 23.347656 -31.695312 C 23.074219 -27.996094 23.644531 -24.1875 23.15625 -20.335938 C 23.316406 -18.472656 23.132812 -16.558594 23.0625 -14.660156 C 22.703125 -13.898438 21.84375 -14.121094 21.1875 -13.789062 C 20.164062 -13.519531 19.210938 -12.785156 18.242188 -12.167969 C 16.09375 -12.320312 12.921875 -13.023438 12.65625 -15.582031 C 12.25 -17.527344 11.113281 -19.597656 11.992188 -21.617188 C 12.648438 -24.3125 14.054688 -26.765625 15.339844 -29.199219 C 16.125 -30.261719 17.824219 -30.75 17.847656 -32.171875 C 19.078125 -33.417969 20.421875 -34.679688 22.101562 -35.285156 C 22.414062 -35.566406 23.203125 -35.804688 23.191406 -35.09375 C 23.941406 -34.027344 22.8125 -32.914062 23.347656 -31.695312 Z M 23.347656 -31.695312 "/></g></g><g style="fill:rgb(100%,100%,100%);fill-opacity:1;"><g transform="translate(323.964168, 252.543594)"><path style="stroke:none;" d="M 29.335938 -56.714844 C 28.050781 -58.828125 26.128906 -60.570312 24.03125 -62.03125 C 22.195312 -62.238281 20.984375 -64.007812 19.191406 -64.582031 C 19.191406 -64.582031 19.191406 -64.582031 19.167969 -64.695312 C 19.054688 -64.671875 18.914062 -64.761719 18.777344 -64.851562 C 18.523438 -64.917969 18.246094 -65.097656 17.96875 -65.277344 C 17.628906 -65.203125 17.375 -65.269531 17.121094 -65.332031 C 16.203125 -65.734375 15.214844 -65.882812 14.34375 -66.054688 C 12.085938 -65.457031 9.792969 -65.5625 7.558594 -64.851562 C 6.246094 -63.734375 4.394531 -63.460938 3.21875 -62.257812 C 2.722656 -61.792969 0.726562 -62.203125 1.628906 -61.320312 C 0.226562 -60.066406 -1.179688 -58.8125 -2.632812 -57.789062 C -4.136719 -55.320312 -5.5 -52.765625 -5.96875 -49.917969 C -6.074219 -45.363281 -5.785156 -40.652344 -3.519531 -36.71875 C -2.835938 -35.195312 -1.425781 -34.179688 -0.515625 -32.703125 C 0.175781 -32.253906 0.484375 -31.367188 1.355469 -31.195312 C 1.875 -29.871094 3.539062 -30.464844 4.558594 -29.609375 C 7.054688 -29.660156 9.382812 -28.246094 12.03125 -28.691406 C 14.175781 -29.269531 16.433594 -28.195312 18.585938 -28.175781 C 19.554688 -27.546875 20.808594 -27.816406 21.933594 -27.578125 C 22.742188 -27.152344 23.480469 -26.476562 24.222656 -25.796875 C 24.375 -24.515625 23.289062 -23.449219 22.382812 -22.660156 C 19.722656 -19.46875 15.433594 -18.320312 11.601562 -17.265625 C 8.769531 -16.542969 5.160156 -16.132812 2.796875 -18.253906 C 2.105469 -18.703125 1.480469 -19.40625 0.8125 -19.742188 C 0.222656 -19.140625 -0.84375 -18.554688 -0.652344 -17.640625 C -0.566406 -14.4375 -0.410156 -10.890625 1.796875 -8.378906 C 2.984375 -6.71875 4.890625 -6.171875 6.527344 -5.207031 C 7.335938 -4.78125 8.074219 -4.105469 8.996094 -3.703125 C 11.058594 -3.546875 13.078125 -3.023438 15.070312 -3.207031 C 16.414062 -3.613281 17.921875 -3.8125 19.105469 -4.421875 C 19.441406 -5.089844 20.246094 -4.667969 20.867188 -4.558594 C 23.671875 -5.394531 26.054688 -7.09375 28.648438 -8.363281 C 29.621094 -9.40625 30.640625 -10.21875 31.609375 -11.261719 C 32.335938 -11.773438 32.09375 -12.914062 32.871094 -13.199219 C 33.414062 -13.433594 33.292969 -14.003906 33.3125 -14.484375 C 33.808594 -14.949219 33.941406 -15.457031 34.160156 -16.097656 C 34.597656 -17.980469 35.257812 -19.914062 34.730469 -21.828125 C 34.328125 -23.175781 34.695312 -24.804688 33.949219 -26.078125 C 33.175781 -27.464844 32.632812 -28.898438 31.859375 -30.285156 C 29.652344 -32.800781 27.539062 -35.453125 24.65625 -37.226562 C 23.960938 -37.675781 22.796875 -37.546875 22.464844 -38.546875 C 21.226562 -38.761719 20.207031 -39.621094 19.171875 -39.996094 C 17.585938 -40.730469 15.914062 -40.734375 14.4375 -41.496094 C 11.089844 -42.09375 7.699219 -42.328125 4.332031 -42.445312 C 3.902344 -43.90625 5.265625 -44.792969 5.730469 -45.964844 C 6.734375 -46.296875 7.386719 -47.152344 8.226562 -47.691406 C 8.703125 -48.269531 9.5 -48.4375 9.925781 -49.246094 C 10.832031 -50.035156 12.226562 -50.210938 13.082031 -51.230469 C 13.695312 -51.71875 14.46875 -52 15.128906 -52.261719 C 16.5 -52.554688 17.835938 -51.882812 19.183594 -52.289062 C 19.1875 -51.695312 18.300781 -51.386719 18.195312 -50.765625 C 17.824219 -49.136719 19.144531 -47.984375 19.230469 -46.453125 C 18.992188 -45.328125 20.011719 -44.46875 20 -43.394531 C 21.207031 -42.21875 22.253906 -40.652344 24.152344 -40.699219 C 25.074219 -40.296875 26.640625 -39.675781 27.195312 -40.988281 C 28.6875 -42.378906 29.375 -44.195312 30.730469 -45.675781 C 31.402344 -47.011719 31.707031 -48.390625 31.757812 -49.832031 C 31.359375 -52.253906 30.304688 -54.417969 29.335938 -56.714844 Z M 29.335938 -56.714844 "/></g></g></g></svg>